<?xml version="1.0" encoding="utf-8"?>
<!-- Generator: Adobe Illustrator 21.0.0, SVG Export Plug-In . SVG Version: 6.00 Build 0)  -->
<svg version="1.1" id="Capa_1" xmlns="http://www.w3.org/2000/svg" xmlns:xlink="http://www.w3.org/1999/xlink" x="0px" y="0px"
	 viewBox="0 0 905.1 905.1" style="enable-background:new 0 0 905.1 905.1;" xml:space="preserve">
<style type="text/css">
	.st0{fill:#FFFFFF;}
</style>
<g>
	<polygon class="st0" points="598.8,902.3 851,902.3 779.5,172.3 116,172.3 93.9,397.4 	"/>
	<polygon class="st0" points="88.6,451.3 79.3,546.8 434.8,902.3 539.6,902.3 	"/>
	<polygon class="st0" points="280.8,902.3 375.6,902.3 74,600.6 65.5,687 	"/>
	<polygon class="st0" points="60.3,740.9 44.5,902.3 221.6,902.3 	"/>
</g>
<path class="st0" d="M304.8,172.6c-0.4-1.6-0.5-3.3-0.2-5C315.7,100,374.3,48.2,445,48.2c70.7,0,129.3,51.8,140.4,119.3
	c0.3,1.7,0.2,3.4-0.2,5H630c-0.2-0.6-0.3-1.3-0.4-1.9C619.6,77.4,540.9,4.7,445,4.7c-95.9,0-174.6,72.7-184.6,165.9
	c-0.1,0.7-0.2,1.3-0.4,1.9H304.8z"/>
</svg>
