<?xml version="1.0" encoding="utf-8"?>
<!-- Generator: Adobe Illustrator 21.0.0, SVG Export Plug-In . SVG Version: 6.00 Build 0)  -->
<svg version="1.1"
	 id="svg2971" inkscape:version="0.91 r13725" sodipodi:docname="Adidas Classic.svg" sodipodi:version="0.32" xmlns:cc="http://creativecommons.org/ns#" xmlns:dc="http://purl.org/dc/elements/1.1/" xmlns:inkscape="http://www.inkscape.org/namespaces/inkscape" xmlns:rdf="http://www.w3.org/1999/02/22-rdf-syntax-ns#" xmlns:sodipodi="http://sodipodi.sourceforge.net/DTD/sodipodi-0.dtd" xmlns:svg="http://www.w3.org/2000/svg"
	 xmlns="http://www.w3.org/2000/svg" xmlns:xlink="http://www.w3.org/1999/xlink" x="0px" y="0px" viewBox="0 0 1000 972.4"
	 style="enable-background:new 0 0 1000 972.4;" xml:space="preserve">
<style type="text/css">
	.st0{fill:#FFFFFF;}
</style>
<sodipodi:namedview  bordercolor="#666666" borderopacity="1.0" id="base" inkscape:current-layer="g3003" inkscape:cx="198.13461" inkscape:cy="531.04738" inkscape:document-units="px" inkscape:pageopacity="0.0" inkscape:pageshadow="2" inkscape:window-height="705" inkscape:window-maximized="1" inkscape:window-width="1366" inkscape:window-x="-8" inkscape:window-y="-8" inkscape:zoom="0.35355339" pagecolor="#ffffff" showgrid="false">
	</sodipodi:namedview>
<g id="layer1" transform="translate(-193.4319,95.223841)" inkscape:groupmode="layer" inkscape:label="Ebene 1">
	<g id="g3003" transform="matrix(1.3792016,0,0,1.3792016,-73.349692,-332.62469)">
		<path id="path2425" inkscape:connector-curvature="0" class="st0" d="M864.1,500.7c-4.3,8.7-12.1,20.8-19.3,27.9H269.9
			c-4.2-5.7-14.2-18.7-18.5-27.9H864.1 M821.2,557.9c-7.2,10-17.9,19.4-29.4,25.8H320.9c-9.4-6.4-18.7-15.8-27.3-25.8H821.2
			 M756.1,610.9c-50.9,37.9-106.7,57.2-149,60.1c0-15.7,0-37.2,4.3-60.1H756.1 M917.7,313.2c4.3,46.5-10.8,103.1-39.3,160.3H666.6
			c7.8-13.6,17.9-26.4,29.3-39.4C757.4,361.9,852,317.4,917.7,313.2 M506.9,671c-40.8-2.8-96.7-22.1-148.1-60.1h146
			C507.6,633.8,507.6,655.3,506.9,671 M557.7,675.3c-16.4-15.7-30.8-37.2-45.7-64.4h90.8C588.5,638.1,572.8,659.6,557.7,675.3
			 M449.7,473.5H237.1c-28.7-57.2-42.9-113.8-38.7-160.3c65.1,4.2,160.5,48.7,222,120.9C431,447,441.7,459.9,449.7,473.5
			 M649.4,473.5H466.1c-2.8-16.4-2.8-32.3-2.8-50.8c0-100.3,44.4-204.1,94.4-250.6c49.5,46.5,94.6,150.3,94.6,250.6
			C652.3,441.2,650.8,457,649.4,473.5"/>
		<path id="path2449" inkscape:connector-curvature="0" class="st0" d="M863.4,877.2c30,0,55.1-12.1,55.1-42.1
			c0-17.2-12.1-28.7-31.5-33.8c-20-4.9-45.7-4.2-45.7-17.2c1.3-8.5,9.3-10.8,21.4-10.8c18.7,0,19.4,10,20.2,16.6h30.8
			c-2.2-23.6-21.5-40.2-52.3-40.2c-32.3,0-50.8,17.2-50.8,39.4c0,12.8,6.4,24.4,17.2,30c7.8,3.6,18.5,6.4,31.5,8.7
			c13.4,1.3,25.7,2.8,26.4,12.1c0,6.4-6.4,14.3-20.8,14.3c-20.8,0-25.1-11.5-25.1-19.3h-32.1C808.2,860,829,877.2,863.4,877.2"/>
		<path id="path2451" inkscape:connector-curvature="0" class="st0" d="M728.7,877.2c13.7,0,25.8-4.3,35.9-10.8v7.9h30.8V751.2
			h-30.8v9.3c-10-7.2-22.1-10.8-35.9-10.8c-35,0-64.4,27.9-64.4,63.8C664.4,848.6,693.8,877.2,728.7,877.2L728.7,877.2z
			 M694.5,813.5c0-19.4,16.4-35.9,35.7-35.9c18.7,0,34.4,16.4,34.4,35.9c0,18.5-15.7,35.1-34.4,35.1
			C711,848.6,694.5,832.1,694.5,813.5"/>
		<path id="path2453" inkscape:connector-curvature="0" class="st0" d="M624.3,708.9v51.5c-10.8-7.2-22.9-10.8-36.5-10.8
			c-35.1,0-63.8,27.9-63.8,63.8c0,35.1,28.7,63.6,63.8,63.6c13.6,0,26.4-4.3,36.5-10.8v7.9h30V708.9H624.3L624.3,708.9z
			 M553.5,813.5c0-19.4,16.4-35.9,35-35.9c19.4,0,35.9,16.4,35.9,35.9c0,18.5-16.4,35.1-35.9,35.1
			C569.9,848.6,553.5,832.1,553.5,813.5"/>
		<path id="path2455" inkscape:connector-curvature="0" class="st0" d="M481.2,874.3h30V751.2h-30V874.3z M481.2,739.7h30v-30.8h-30
			V739.7"/>
		<path id="path2457" inkscape:connector-curvature="0" class="st0" d="M398.9,877.2c13.6,0,25.7-4.3,36.5-10.8v7.9h30.8V708.9
			h-30.8v51.5c-10.8-7.2-22.9-10.8-36.5-10.8c-35.1,0-64.4,27.9-64.4,63.8C334.5,848.6,363.8,877.2,398.9,877.2L398.9,877.2z
			 M363.8,813.5c0-19.4,16.4-35.9,36.5-35.9c18.7,0,35.1,16.4,35.1,35.9c0,18.5-16.4,35.1-35.1,35.1
			C380.2,848.6,363.8,832.1,363.8,813.5"/>
		<path id="path2459" inkscape:connector-curvature="0" class="st0" d="M257.1,877.2c14.3,0,26.4-4.3,37.2-10.8v7.9h30V751.2h-30
			v9.3c-10.8-7.2-23.6-10.8-37.2-10.8c-35.1,0-63.6,27.9-63.6,63.8C193.4,848.6,222,877.2,257.1,877.2L257.1,877.2z M222.7,813.5
			c0-19.4,16.4-35.9,35.1-35.9c20,0,36.5,16.4,36.5,35.9c0,18.5-16.4,35.1-36.5,35.1C239.1,848.6,222.7,832.1,222.7,813.5"/>
	</g>
</g>
</svg>
